<svg width="412" height="346" viewBox="0 0 412 346" fill="none" xmlns="http://www.w3.org/2000/svg">
<path d="M369.963 250.611C368.217 246.285 366.359 242.003 364.448 237.743C362.359 233.252 360.361 228.732 358.468 224.183C353.556 212.376 349.8 200.231 346.672 187.909C345.631 183.803 344.657 179.675 343.736 175.533C342.952 170.595 342.188 165.524 341.48 160.297C342.105 154.517 342.36 148.735 342.251 143.003C342.139 137.271 341.665 131.589 340.832 126.009C340.672 122.175 340.297 118.419 339.757 114.672C340.395 95.1546 339.592 72.732 331.74 55.0787C330.169 51.548 328.316 48.208 326.141 45.12C314.111 30.1106 295.444 19.444 276.777 24.7773C252.277 30.6107 229.819 43.5907 204.661 47.1387C201.067 47.6467 197.416 47.9613 193.688 48.0333C188.777 47.444 184.777 48.7773 179.444 47.444C171.667 46.7773 163.408 44.9253 154.888 42.548C150.629 41.3587 146.303 40.0373 141.928 38.6666C118.111 31.444 95.444 22.1107 70.1106 24.7773C42.1107 28.7773 26.1115 56.7773 23.7193 81.5986C22.9115 86.0466 22.1927 90.5226 21.5407 95.0146C17.6276 121.967 16.1771 149.532 10.3755 175.796C9.43439 180.189 8.34319 184.556 7.13799 188.907C6.03959 193.051 5.0292 197.336 4.14533 201.712C-3.8104 241.101 -1.52346 287.896 39.308 306.805C43.8493 309.209 48.692 311.283 53.664 313.019C68.6013 318.225 84.6333 320.387 99.268 319.056C102.593 319.056 106.197 320.165 109.867 321.688C113.535 323.211 117.271 325.148 120.86 326.805C124.801 328.336 128.781 329.745 132.796 331.041C160.899 340.115 190.661 343.683 220.231 344.973C232.097 345.493 244.072 345.648 255.837 344.237C259.775 343.765 263.691 343.121 267.584 342.257C279.865 337.668 293.397 335.964 306.371 333.339C310.695 332.464 314.959 331.485 319.091 330.264C344.923 322.753 362.367 300.973 368.601 276.145C369.848 271.181 370.651 266.091 371.013 260.965C370.911 257.528 370.567 254.079 369.963 250.611Z" fill="#F1F1F7"/>
<path d="M355.903 265.439C365.277 254.152 371.748 241.024 367.968 226.015C366.408 219.82 364.892 214.677 368.751 208.995C370.575 206.311 372.845 203.888 374.121 200.905C377.829 192.236 374.156 183.561 370.075 175.787C367.065 170.057 363.875 164.272 362.448 157.904C360.939 151.173 362.357 144.316 361.551 137.521C360.768 130.939 356.932 123.837 350.396 122.727C346.059 121.991 341.667 124.153 338.476 127.184C334.812 130.663 332.315 135.352 331.475 140.333C330.324 147.148 332.151 154.493 329.428 160.845C327.027 166.448 321.577 170.083 318.043 175.049C314.289 180.325 312.832 187.179 314.113 193.525C315.183 198.813 318.028 203.641 318.875 208.971C320.783 220.949 312.343 232.709 313.951 244.732C314.884 251.72 319.263 257.976 324.999 262.076C331.509 266.728 340.903 270.016 348.919 268.496C353.271 267.672 357.1 265.24 359.52 261.509" fill="#DAD5EE"/>
<path d="M342.225 260.351C342.825 257.483 342.863 254.755 342.197 252.683C339.944 245.664 333.213 240.919 328.452 235.687C322.788 229.459 318.651 221.464 318.596 213.044C318.552 206.216 317.049 200.467 312.284 195.275C307.599 190.172 301.691 186.415 296.76 181.573C291.567 176.472 286.917 171.049 282.839 165.016C279.397 159.925 272.941 152.315 267.96 160.759C265.987 164.101 265.335 168.2 266.173 171.991C268.376 181.956 277.515 188.468 281.389 197.659C283.347 202.3 283.596 207.269 284.109 212.223C284.571 216.667 285.404 221.635 288.588 225.012C290.44 226.973 292.799 228.439 294.473 230.553C296.809 233.507 297.481 237.269 298.292 240.845C299.169 244.723 300.6 248.12 302.251 251.715C306.352 260.66 312.399 271.057 321.801 275.099C324.544 276.279 327.644 276.917 330.532 276.155C336.976 274.456 340.969 266.364 342.225 260.351Z" fill="#DAD5EE"/>
<path d="M327.885 184.16C328.291 183.884 328.843 183.993 329.117 184.399L343.159 205.173L346.287 151.109C346.313 150.621 346.751 150.271 347.224 150.273C347.715 150.303 348.088 150.724 348.06 151.212L345.776 190.692L363.087 181.169C363.517 180.939 364.059 181.091 364.293 181.519C364.529 181.951 364.373 182.491 363.944 182.727L345.836 192.689L345.657 192.74L343.549 229.185L357.505 222.129C357.94 221.907 358.476 222.084 358.699 222.521C358.92 222.959 358.745 223.493 358.305 223.713L343.429 231.235L341.721 260.764C341.696 261.219 341.332 261.573 340.888 261.599L340.784 261.6C340.293 261.572 339.919 261.152 339.949 260.661L342.989 208.097L327.645 185.395C327.371 184.987 327.477 184.435 327.885 184.16Z" fill="#C7C4E7"/>
<path d="M379.293 198.001C382.164 190.352 383.875 184.752 384.729 181.728C383.428 175.129 381.312 157.893 394.023 155.327C400.899 158.952 403.005 171.909 388.143 182.439C387.201 185.792 385.188 192.407 381.665 201.54C392.251 185.811 405.961 187.524 410.133 194.655C407.712 210.139 384.573 206.455 380.071 205.585C378.079 210.533 375.692 216.087 372.851 222.159C383.976 210.808 395.811 213.736 399.123 220.629C395.692 234.851 375.623 230.953 369.376 229.369C366.627 234.921 363.523 240.829 360.035 247.027C374.464 233.476 388.743 237.952 392.139 246.561C386.775 263.383 362.583 256.468 355.901 254.197C345.495 271.827 332.08 291.485 314.913 311.911L312.248 309.669C329.456 289.196 342.86 269.513 353.216 251.912C345.592 247.405 327.999 235.052 336.141 220.941C344.733 217.679 357.545 225.088 357.424 244.577C360.513 239.06 363.292 233.783 365.784 228.789C359.868 225.309 345.887 215.584 352.304 204.464C358.924 201.948 368.737 207.532 368.968 222.248C372.256 215.308 374.959 209.024 377.151 203.531C372.076 200.699 355.817 190.443 362.643 178.615C369.5 176.011 379.777 182.091 379.293 198.001Z" fill="#C7C4E7"/>
<path d="M292.996 221.485C293.244 221.064 293.789 220.92 294.212 221.168L310.103 230.468L295.084 197.853C294.879 197.408 295.073 196.879 295.52 196.673C295.963 196.469 296.492 196.665 296.697 197.109L307.68 220.96L308.848 200.773C308.876 200.283 309.3 199.921 309.785 199.937C310.275 199.967 310.649 200.385 310.62 200.876L309.295 223.799C309.287 223.943 309.235 224.071 309.167 224.188L323.493 255.303L326.497 243.191C326.616 242.713 327.1 242.421 327.575 242.54C328.051 242.66 328.341 243.141 328.223 243.617L324.863 257.165C324.815 257.357 324.707 257.517 324.567 257.633L327.293 263.553C327.499 263.999 327.304 264.528 326.859 264.733L326.537 264.811C326.185 264.832 325.836 264.639 325.68 264.297L311.297 233.063C311.139 233.067 310.973 233.035 310.825 232.949L293.313 222.701C292.891 222.455 292.749 221.909 292.996 221.485Z" fill="#C7C4E7"/>
<path d="M352.613 266.836C352.389 264.811 352.545 262.92 353.144 261.529C355.172 256.821 360.147 253.985 363.792 250.68C368.129 246.747 371.525 241.487 372.124 235.661C372.609 230.937 374.031 227.057 377.677 223.781C381.26 220.561 385.601 218.353 389.337 215.331C393.272 212.145 396.852 208.7 400.079 204.796C402.8 201.501 407.775 196.663 410.661 202.84C411.805 205.285 411.983 208.167 411.149 210.735C408.961 217.485 402.2 221.385 398.907 227.491C397.243 230.573 396.737 233.996 396.052 237.391C395.437 240.437 394.529 243.82 392.099 245.947C390.688 247.181 388.957 248.037 387.656 249.391C385.843 251.279 385.127 253.84 384.328 256.26C383.463 258.887 382.244 261.143 380.863 263.523C377.427 269.441 372.548 276.236 365.771 278.408C363.793 279.041 361.604 279.276 359.656 278.557C355.308 276.951 353.084 271.084 352.613 266.836Z" fill="#DAD5EE"/>
<path d="M361.08 269.692L363.271 265.929L363.152 265.605L361.729 256.003C361.659 255.517 361.993 255.065 362.477 254.993C362.976 254.908 363.416 255.255 363.488 255.744L364.648 263.565L376.193 243.748L376.152 243.495L376.76 227.539C376.779 227.045 377.175 226.669 377.683 226.683C378.173 226.701 378.553 227.115 378.535 227.605L378.041 240.575L386.688 225.732C386.935 225.305 387.479 225.167 387.901 225.411C388.325 225.659 388.471 226.201 388.221 226.627L376.084 247.461L386.924 242.443C387.365 242.236 387.899 242.429 388.104 242.875C388.311 243.32 388.117 243.849 387.672 244.053L374.865 249.981L374.573 250.056L362.615 270.584C362.459 270.853 362.185 271.008 361.897 271.024C361.729 271.033 361.556 270.996 361.4 270.907C360.975 270.657 360.832 270.115 361.08 269.692Z" fill="#C7C4E7"/>
<path d="M179.943 138.151H269.699V89.872C269.699 65.1266 249.568 44.9946 224.821 44.9946C200.076 44.9946 179.943 65.1266 179.943 89.872V138.151ZM292.139 160.589H157.504V89.872C157.504 52.7533 187.701 22.556 224.821 22.556C261.94 22.556 292.139 52.7533 292.139 89.872V160.589Z" fill="#292929"/>
<path d="M252.777 158.556H195.444V222.111H252.777V158.556Z" fill="#292929"/>
<path d="M216.884 188.496V200.12C216.884 204.496 220.42 208.032 224.84 208.032C229.216 208.032 232.751 204.496 232.751 200.12V188.496C237.613 185.711 240.884 180.496 240.884 174.531C240.884 165.028 232.575 157.469 222.852 158.619C215.912 159.459 210.167 164.851 209.017 171.745C207.824 178.861 211.315 185.269 216.884 188.496ZM311.556 265.709H138.124C132.289 265.709 127.604 260.98 127.604 255.191V119.149C127.604 113.36 132.289 108.631 138.124 108.631H311.556C317.347 108.631 322.076 113.36 322.076 119.149V255.191C322.076 260.98 317.347 265.709 311.556 265.709Z" fill="#4B49AC"/>
<path d="M78.452 251.665H73.5067V209.937H78.452V251.665Z" fill="#A098D4"/>
<path d="M76.6227 263.203L75.04 263.172L75.288 251.056L76.8693 251.087L76.6227 263.203Z" fill="#A098D4"/>
<path d="M78.2293 264.844C78.2293 266.196 77.1347 267.293 75.7813 267.293C74.4307 267.293 73.3333 266.196 73.3333 264.844C73.3333 263.492 74.4307 262.396 75.7813 262.396C77.1347 262.396 78.2293 263.492 78.2293 264.844Z" fill="#A098D4"/>
<path d="M88.1986 264.844C88.1986 266.196 87.1026 267.293 85.7506 267.293C84.4 267.293 83.304 266.196 83.304 264.844C83.304 263.492 84.4 262.396 85.7506 262.396C87.1026 262.396 88.1986 263.492 88.1986 264.844Z" fill="#A098D4"/>
<path d="M86.6413 263.468H85.06V260.103L76.256 251.303L77.376 250.183L86.6413 259.448V263.468Z" fill="#A098D4"/>
<path d="M63.7613 264.844C63.7613 266.196 64.8573 267.293 66.2093 267.293C67.56 267.293 68.6573 266.196 68.6573 264.844C68.6573 263.492 67.56 262.396 66.2093 262.396C64.8573 262.396 63.7613 263.492 63.7613 264.844Z" fill="#A098D4"/>
<path d="M66.9 263.468H65.3186V259.448L74.584 250.183L75.7027 251.303L66.9 260.103V263.468Z" fill="#A098D4"/>
<path d="M97.0387 148.483V210.925H51.5573C46.0827 210.925 41.6507 206.495 41.6507 201.035V148.483C41.6507 138.728 49.5586 130.82 59.3146 130.82H79.376C89.132 130.82 97.0387 138.728 97.0387 148.483Z" fill="#BBADDD"/>
<path d="M72.848 199.453V210.925H51.5573C46.0827 210.925 41.6507 206.495 41.6507 201.035V199.453H72.848Z" fill="#A098D4"/>
<path d="M110.895 210.925H58.6707V199.453H110.895V210.925Z" fill="#BBADDD"/>
<path d="M90.5613 200.636C107.848 203.48 122.379 202.649 123.016 198.781C123.652 194.912 110.153 189.471 92.8653 186.625C75.5787 183.78 61.0493 184.611 60.412 188.479C59.776 192.348 73.2733 197.791 90.5613 200.636Z" fill="#E8CDA7"/>
<path d="M119.915 197.773C132.111 192.027 136.557 245.375 133.855 256.957C131.151 268.539 124.004 248.736 120.507 229.921C117.008 211.109 115.116 200.033 119.915 197.773Z" fill="#E8CDA7"/>
<path d="M133.701 257.679C133.701 257.679 135.335 259.799 138.917 262.577C142.5 265.355 143.449 264.769 143.524 265.793C143.596 266.816 128.536 265.793 128.536 265.793L128.841 257.385C128.841 257.385 133.701 257.46 133.701 257.679Z" fill="#292929"/>
<path d="M105.944 194.885C122.871 200.249 137.553 201.567 138.739 197.829C139.923 194.091 127.16 186.713 110.233 181.349C93.3053 175.985 78.6227 174.668 77.4387 178.405C76.2533 182.143 89.0173 189.521 105.944 194.885Z" fill="#E8CDA7"/>
<path d="M134.556 195.855C148.808 199.956 112.368 244.007 101.728 251.619C91.088 259.231 100.951 240.948 111.712 222.859C122.475 204.769 128.949 194.241 134.556 195.855Z" fill="#E8CDA7"/>
<path d="M101.08 252.104C101.08 252.104 100.889 255.041 101.835 259.937C102.78 264.835 103.989 265.04 103.307 265.939C102.625 266.839 90.9187 255.063 90.9187 255.063L97.272 248.335C97.272 248.335 101.239 251.923 101.08 252.104Z" fill="#292929"/>
<path d="M70.0227 179.021C71.0573 186.435 82.7227 192.001 94.2493 195.917C105.831 199.861 117.272 202.1 117.664 202.884C118.419 204.339 100.263 238.607 98.3333 242.216C98.2213 242.412 98.1653 242.524 98.1653 242.524L105.859 249.433C105.859 249.433 140.576 210.94 139.4 197.681C138.337 185.344 92.8507 175.384 92.8507 175.384C92.8507 175.384 67.9813 164.167 70.0227 179.021Z" fill="#495BAC"/>
<path d="M117.664 202.884C118.419 204.339 100.263 238.607 98.3333 242.216C109.86 230.663 134.113 204.675 128.041 196.449C120.181 185.792 89.0747 181.427 89.0747 181.427L94.2493 195.917C105.831 199.861 117.272 202.1 117.664 202.884Z" fill="#42539E"/>
<path d="M63.6173 202.129C74.6387 205.709 111.313 204.925 112.6 206.465C113.887 208.003 126.587 254.329 126.587 254.329H136.463C136.351 254.329 133.637 209.179 126.699 197.764C119.789 186.351 79.2547 179.161 79.2547 179.161L57.0707 178.265C57.0707 178.265 56.9867 178.601 56.9027 179.189C56.1747 183.191 53.9933 198.995 63.6173 202.129Z" fill="#495BAC"/>
<path d="M63.6173 202.129C74.6387 205.709 111.313 204.925 112.6 206.465C113.887 208.003 126.587 254.329 126.587 254.329H126.84C126.951 242.328 118.895 207.332 114.783 202.8C110.223 197.792 85.9773 198.375 73.3893 197.564C62.7027 196.864 58.0493 183.441 56.9027 179.189C56.1747 183.191 53.9933 198.995 63.6173 202.129Z" fill="#42539E"/>
<path d="M86.58 134.612C88.7587 131.26 90.456 127.361 92.3773 123.912C93.648 121.633 94.9587 119.171 94.716 116.573C94.528 114.569 93.432 112.769 92.964 110.812C92.5867 109.24 92.624 107.603 92.6613 105.985C92.716 103.743 92.7693 101.5 92.824 99.256C92.8573 97.8906 93.2293 96.4066 92.452 95.3533C91.468 94.0186 89.5187 92.9053 88.2493 91.8453C85.572 89.6107 82.8947 87.3773 80.2173 85.1427L63.312 97.1173L64.896 127.581C69.0506 129.572 73.204 131.563 77.3586 133.553C78.9306 134.305 80.5013 135.059 82.0747 135.812C83.6 136.544 84.5706 137.452 85.7106 135.879C86.0093 135.468 86.2987 135.044 86.58 134.612Z" fill="#823272"/>
<path d="M79.6187 129.367C80.5133 133.031 81.688 137.955 83.1147 142.711C84.3467 146.907 85.7453 150.935 87.228 153.76C88.6827 156.557 90.22 158.18 91.7587 157.704C92.3187 157.536 92.7667 157.173 93.1013 156.669C93.7453 155.663 93.9693 154.068 93.8853 152.109C93.8293 150.487 93.5493 148.584 93.1307 146.543C92.6827 144.333 92.0667 141.955 91.3667 139.577C89.4653 133.031 87.004 126.373 85.8013 122.708C85.1853 120.805 82.304 121.813 80.3453 121.645C75.5893 121.197 78.08 123.044 79.6187 129.367Z" fill="#E8CDA7"/>
<path d="M87.7026 157.341C88.0666 158.684 104.796 164.473 116.544 167.3C123.007 168.895 127.959 169.567 127.875 168.139C127.679 164.753 102.445 155.243 93.8853 152.109C93.5786 151.997 93.2986 151.885 93.0453 151.803C91.9826 151.411 90.808 151.355 89.7453 151.635C89.1866 151.803 88.6533 152.053 88.1786 152.445C87.6466 152.864 87.3666 153.312 87.228 153.76C86.836 154.935 87.396 156.221 87.7026 157.341Z" fill="#E8CDA7"/>
<path d="M87.228 153.76C86.836 154.935 87.396 156.221 87.7027 157.341C88.0667 158.684 104.796 164.473 116.544 167.3C109.103 164.361 98.3333 159.859 93.1013 156.669C91.5347 155.719 90.444 154.879 90.1093 154.236C89.6613 153.368 89.5773 152.501 89.7453 151.635C90.1373 149.592 91.9 147.661 93.1307 146.543C92.6827 144.333 92.0667 141.955 91.3667 139.577L85.4093 139.101L83.1147 142.711C84.3467 146.907 85.7453 150.935 87.228 153.76Z" fill="#DDBF9C"/>
<path d="M122.932 166.317C123.869 163.689 128.223 165.819 129.681 166.6C132.055 167.872 133.868 171.157 133.38 172.108C132.891 173.059 127.659 169.84 127.365 169.964C127.072 170.087 129.468 171.897 128.917 172.744C128.365 173.588 124.887 171.6 123.816 170.271C122.745 168.943 122.345 167.965 122.932 166.317Z" fill="#E8CDA7"/>
<path d="M81.52 145.228L83.0026 145.06L90.556 144.277L93.5227 143.969C93.5227 143.969 92.3186 120.555 84.4586 121.645C77.212 122.652 81.52 145.228 81.52 145.228Z" fill="#F14B44"/>
<path d="M81.492 142.375C81.464 142.655 82.108 143.745 83.0027 145.06L90.556 144.277C90.948 142.571 91.284 140.584 91.452 138.291C92.0947 129.367 88.0107 124.359 88.0107 124.359C88.0107 124.359 81.6053 141.507 81.492 142.375Z" fill="#F03E3B"/>
<path d="M57.0707 178.265C57.0707 178.265 82.276 182.099 92.8507 175.384C92.8507 175.384 92.2627 174.125 91.508 172.084C90.92 170.517 90.1933 168.447 89.5493 166.152C88.4853 162.376 87.5907 157.928 87.6747 153.844C87.8707 144.025 90.752 142.487 91.032 136.136C91.3107 129.785 88.1787 122.736 85.996 120.695C81.6333 116.583 70.8613 116.527 66.4427 118.652C62.5267 120.555 60.9587 123.016 60.456 125.393C59.896 127.912 59.476 131.017 59.14 134.401C58.7493 138.235 58.4973 142.487 58.3013 146.795C58.0773 150.852 57.9667 154.991 57.8547 158.88C57.7987 160.837 57.7427 162.712 57.6867 164.503C57.5187 170.461 57.3787 175.44 57.0707 178.265Z" fill="#F14B44"/>
<path d="M58.3013 146.795C62.6653 147.437 68.652 147.915 69.548 146.207C71.0013 143.465 69.772 130.597 69.772 130.597L59.14 134.401C58.7493 138.235 58.4973 142.487 58.3013 146.795Z" fill="#F03E3B"/>
<path d="M57.6867 164.503C58.2173 166.461 58.9173 168.195 59.868 168.783C61.9387 170.097 83.3667 171.58 91.508 172.084C90.92 170.517 90.1933 168.447 89.5493 166.152C85.1013 165.845 62.0787 163.999 62.0787 163.999L57.8547 158.88C57.7987 160.837 57.7427 162.712 57.6867 164.503Z" fill="#F03E3B"/>
<path d="M91.5907 103.791C91.3907 110.737 90.2173 112.551 88.004 114.284C85.912 115.911 81.0973 114.231 80.564 114.044L80.5373 114.031L80.5106 114.004C80.5106 114.004 80.5106 115.551 80.5106 117.031V119.657C80.5106 120.044 81.996 123.111 77.8893 123.111C73.756 123.111 69.6573 119.857 69.6573 119.857C69.6573 119.499 69.6573 109.951 69.6573 109.951C69.6573 109.951 62.444 100.724 65.324 93.0306C68.204 85.3373 82.644 88.8053 87.1387 90.4306C91.6707 92.0706 91.764 96.884 91.5907 103.791Z" fill="#E8CDA7"/>
<path d="M80.5187 113.996L75.0653 112.041L80.5253 117.148L80.5187 113.996Z" fill="#E8CDA7"/>
<path d="M60.036 166.096C60.26 166.237 60.512 166.32 60.792 166.32C62.0506 166.376 63.1413 165.313 64.092 163.495C64.68 162.237 65.24 160.641 65.7426 158.796C66.6106 155.383 67.2813 151.159 67.7853 146.851C67.8693 146.124 67.9533 145.368 68.008 144.612C68.764 137.535 69.072 130.541 69.184 127.016C69.24 125.029 68.288 123.072 66.4986 122.233C62.1906 120.191 59.868 129.087 59.14 135.549C58.9173 137.591 58.6373 140.053 58.3853 142.655C57.4067 152.417 56.7907 164.417 60.036 166.096Z" fill="#E8CDA7"/>
<path d="M60.036 166.096L60.092 166.208C61.0707 167.943 92.4307 170.181 103.453 168.615C105.999 168.251 107.453 167.692 107.201 166.853C106.055 163.244 76.3173 159.887 65.7427 158.796C65.24 158.74 64.792 158.684 64.4 158.656C62.8333 158.488 61.2387 158.908 60.064 159.887C59.756 160.139 59.476 160.417 59.252 160.725C57.6867 162.796 59.112 164.529 60.036 166.096Z" fill="#E8CDA7"/>
<path d="M101.277 166.239C101.572 163.091 106.945 164.213 108.764 164.664C111.727 165.4 114.635 168.499 114.363 169.68C114.092 170.86 107.448 168.787 107.161 169.004C106.873 169.221 110.009 170.54 109.639 171.623C109.271 172.704 104.897 171.493 103.351 170.333C101.804 169.173 101.092 168.212 101.277 166.239Z" fill="#E8CDA7"/>
<path d="M57.2093 144.184C57.2093 144.184 57.7187 121.208 65.0307 121.743C72.9373 122.32 68.8787 145.403 68.8787 145.403L57.2093 144.184Z" fill="#F14B44"/>
<path d="M92.7773 100.212C93.7146 94.8546 94.0306 91.424 92.4986 88.1373C89.0426 80.7186 70.488 76.0293 64.016 90.0293C63.5666 91 63.1467 91.984 62.7507 92.9773C59.8107 100.333 58.0213 108.2 57.0693 116.052C56.6667 119.383 56.4106 122.749 56.4786 126.105C56.5066 127.409 56.576 128.719 56.756 130.011C56.9413 131.332 56.9213 133.271 57.7333 134.308C58.2667 134.989 59.024 135.449 59.7626 135.895C60.3693 136.26 61.012 136.637 61.72 136.652C62.4333 136.667 63.0973 136.309 63.7093 135.941C66.3786 134.335 68.836 132.271 70.4773 129.623C72.12 126.975 72.88 123.693 72.1067 120.675C71.8693 119.752 71.4986 118.871 71.2266 117.959C70.528 115.612 70.5346 113.069 71.1946 110.716C71.524 109.541 72.3093 108.499 72.548 107.303C72.7466 106.299 72.832 105.127 72.7747 104.1C72.744 103.561 72.6666 103.023 72.7093 102.484C72.7466 102.013 72.8747 101.556 73.0013 101.103C73.2347 100.277 73.4666 99.4506 73.6973 98.6253C73.9453 97.7413 74.224 96.8079 74.904 96.1919C75.3587 95.7799 75.9467 95.5546 76.5067 95.3053C78.8613 94.2533 80.5173 92.6079 81.18 90.1186C84.4066 93.9546 87.536 99.0373 92.8253 100.212" fill="#A2418F"/>
<path d="M165.232 141.996L150.737 171.655C150.737 171.655 120.632 171.432 120.409 171.655L134.904 141.996C134.904 141.996 165.679 141.996 165.232 141.996Z" fill="#C9C9C9"/>
<path d="M98.6306 171.572L120.493 171.557L121.363 169.777L122.353 167.756L99.2053 167.597L98.912 169.591L98.6306 171.572Z" fill="#C9C9C9"/>
<path d="M134.904 141.996H133.789L119.572 171.432L120.487 171.551L134.904 141.996Z" fill="#EEEEEE"/>
<path d="M98.6306 171.572L120.493 171.557L121.363 169.777L98.912 169.591L98.6306 171.572Z" fill="#B9B9B9"/>
<path d="M145.984 158.741C144.779 160.235 142.9 160.716 141.787 159.817C140.675 158.919 140.751 156.98 141.956 155.487C143.163 153.995 145.041 153.513 146.153 154.412C147.265 155.309 147.191 157.249 145.984 158.741Z" fill="#E6E6E6"/>
<path d="M44.932 266.659H48.388V172.656H44.932V266.659Z" fill="#292929"/>
<path d="M164.58 266.659H168.035V172.656H164.58V266.659Z" fill="#292929"/>
<path d="M26.424 178.013H186.456V171.111H26.424V178.013Z" fill="#4B1901"/>
<path d="M313.544 185.932H313.732C313.732 185.932 316.391 185.536 318.957 184.089L318.98 184.136V187.892C318.98 187.892 318.257 191.463 313.871 192.465C309.509 191.463 308.761 187.868 308.761 187.868V184.416L308.808 184.347C311.212 185.583 313.544 185.932 313.544 185.932Z" fill="#DDC09E"/>
<path d="M313.732 185.932H313.544C313.544 185.932 311.212 185.583 308.808 184.347C306.499 183.203 304.143 181.267 303.676 178.117C303.676 178.117 300.993 176.951 301.04 174.757C301.085 172.564 303.419 173.147 303.419 173.147C303.419 173.147 301.483 166.243 305.123 161.156C308.761 156.047 313.428 157.633 313.428 157.633H313.801C313.801 157.633 318.491 156.047 322.131 161.156C325.793 166.243 323.833 173.147 323.833 173.147C323.833 173.147 326.167 172.564 326.213 174.757C326.259 176.951 323.6 178.117 323.6 178.117C323.156 181.056 321.081 182.923 318.957 184.089C316.391 185.536 313.732 185.932 313.732 185.932Z" fill="#E8CDA7"/>
<path d="M336.197 240.664L336.245 240.805C325.84 244.887 314.805 251.583 313.871 252.143C312.937 251.583 301.927 244.911 291.521 240.805L291.568 240.664V230.889V225.291H293.972H313.732H314.035H333.772H336.197V230.889V240.664Z" fill="white"/>
<path d="M291.567 230.892V240.667L291.513 240.807C289.555 240.031 287.596 239.361 285.761 238.813C281.069 235.021 274.647 229.48 273.923 227.117C273.341 225.247 275.864 219.777 279.057 213.813L279.111 213.832L287.068 218.312L289.608 219.759C288.179 222.336 286.979 224.805 287.208 225.423C287.703 226.869 291.496 230.892 291.496 230.892H291.567Z" fill="#E8CDA7"/>
<path d="M353.827 227.117C353.121 229.464 346.717 235.003 342.024 238.796C340.189 239.343 338.231 240.013 336.237 240.807L336.201 240.667V230.892H336.272C336.272 230.892 340.048 226.869 340.56 225.423C340.789 224.805 339.589 222.336 338.16 219.759L340.684 218.331L348.657 213.832L348.711 213.813C351.904 219.777 354.427 225.247 353.827 227.117Z" fill="#E8CDA7"/>
<path d="M344.176 226.005C343.117 227.823 339.148 232.427 336.201 235.797V230.892H336.272C336.272 230.892 340.048 226.869 340.56 225.423C340.789 224.805 339.589 222.336 338.16 219.759L341.292 218C342.751 219.959 345.412 223.907 344.176 226.005Z" fill="#DDC09E"/>
<path d="M348.707 213.813L348.653 213.827L341.293 217.987L340.68 218.333L340.667 218.347L338.16 219.76C337.773 219.053 337.36 218.347 336.96 217.653C335.613 215.347 334.333 213.32 334.093 212.947L334.08 212.92L334.067 212.88C334.067 212.88 333.56 221.053 333.773 224.907V225.28H293.96V224.907C294.213 221.053 293.68 212.88 293.68 212.88L293.667 212.933C293.36 213.387 291.32 216.653 289.613 219.76L287.067 218.307L279.107 213.827L279.053 213.813C282.32 207.653 286.347 200.933 288.44 197.053C291.827 190.827 303.2 188.64 307.293 188.053C308.227 187.92 308.773 187.867 308.773 187.867C308.773 187.867 309.507 191.467 313.867 192.467C318.253 191.467 318.987 187.893 318.987 187.893C318.987 187.893 319.533 187.947 320.453 188.08C324.533 188.653 335.933 190.813 339.32 197.053C341.2 200.507 344.573 206.213 347.613 211.773C347.987 212.453 348.347 213.133 348.707 213.813Z" fill="#F14B44"/>
<path d="M341.293 217.987L340.68 218.333L340.667 218.347L338.16 219.76C336.453 216.693 334.413 213.427 334.093 212.947L334.08 212.92V207.479C334.08 207.479 338.533 212.987 341.293 217.987Z" fill="#F03E3B"/>
<path d="M293.684 207.78V212.879L293.665 212.932C293.365 213.391 291.319 216.655 289.608 219.759L287.068 218.312C289.819 213.161 293.684 207.78 293.684 207.78Z" fill="#F03E3B"/>
<path d="M291.567 230.892V234.367C288.055 231.633 284.42 228.247 284.333 225.793C284.28 224.065 285.497 221.224 287.068 218.312L289.608 219.759C288.179 222.336 286.979 224.805 287.208 225.423C287.703 226.869 291.496 230.892 291.496 230.892H291.567Z" fill="#DDC09E"/>
<path d="M302.001 170.383C301.857 170.167 301.288 169.265 301.36 167.98C301.453 166.313 302.548 165.412 302.681 165.305C302.632 165.195 302.388 164.619 302.568 163.947C302.729 163.349 303.164 162.9 303.7 162.768C303.657 162.613 303.289 161.205 304.003 160.003C304.628 158.951 305.82 158.496 306.948 158.916C307.028 157.503 307.741 156.259 308.799 155.696C310.28 154.907 311.633 155.885 311.744 155.969C311.759 155.924 312.049 155.143 312.763 155.017C313.232 154.933 313.703 155.169 313.996 155.623C314.289 155.169 314.759 154.933 315.229 155.017C315.943 155.143 316.233 155.924 316.249 155.969C316.36 155.885 317.711 154.907 319.195 155.696C320.251 156.259 320.964 157.503 321.043 158.916C322.172 158.496 323.364 158.951 323.988 160.003C324.703 161.205 324.333 162.613 324.291 162.768C324.828 162.9 325.263 163.349 325.423 163.947C325.604 164.619 325.361 165.195 325.309 165.305C325.443 165.412 326.537 166.313 326.632 167.98C326.704 169.265 326.136 170.167 325.989 170.383C326.427 170.727 326.613 171.385 326.443 171.971C326.279 172.536 325.815 172.909 325.309 172.876C325.2 173 325.031 173.159 324.801 173.285C324.644 173.368 324.501 173.416 324.385 173.443C324.229 173.38 323.865 173.205 323.611 172.763C323.109 171.893 323.516 170.84 323.535 170.792C323.373 170.596 322.383 169.368 322.592 167.821C322.639 167.471 322.741 167.167 322.856 166.916C322.656 166.831 321.455 166.293 321.063 164.876C320.944 164.447 320.931 164.049 320.949 163.743C320.579 163.997 320.139 164 319.816 163.743C319.548 163.528 319.451 163.205 319.42 163.084C319.152 163.255 318.465 163.635 317.551 163.539C316.595 163.439 315.953 162.88 315.72 162.655C315.72 162.655 315.456 163.647 314.02 163.671V163.675L313.996 163.673L313.972 163.675V163.671C312.536 163.647 312.272 162.655 312.272 162.655C312.037 162.88 311.396 163.439 310.44 163.539C309.527 163.635 308.84 163.255 308.572 163.084C308.54 163.205 308.443 163.528 308.175 163.743C307.853 164 307.415 163.997 307.041 163.743C307.061 164.049 307.048 164.447 306.928 164.876C306.536 166.293 305.335 166.831 305.136 166.916C305.251 167.167 305.353 167.471 305.4 167.821C305.609 169.368 304.619 170.596 304.456 170.792C304.475 170.84 304.883 171.893 304.38 172.763C304.125 173.205 303.763 173.38 303.607 173.443C303.489 173.416 303.347 173.368 303.192 173.285C302.96 173.159 302.792 173 302.681 172.876C302.176 172.909 301.713 172.536 301.548 171.971C301.379 171.385 301.565 170.727 302.001 170.383Z" fill="#532712"/>
<path d="M333.132 259.313L333.08 262.613L333.009 267.2C333.009 267.2 328.492 266.795 321.965 265.948C313.584 264.855 301.869 263.02 292.06 260.32C283.116 257.867 275.741 254.709 273.907 250.757C269.901 242.148 278.387 235.267 288.161 238.655C292.079 240.031 300.071 243.595 308.256 247.405C320.481 253.104 333.132 259.313 333.132 259.313Z" fill="#58A1D5"/>
<path d="M333.132 259.313L333.08 262.613L321.965 265.948C313.584 264.855 301.869 263.02 292.06 260.32C296.895 257.304 303.88 251.305 308.256 247.405C320.481 253.104 333.132 259.313 333.132 259.313Z" fill="#4D91C2"/>
<path d="M336.437 260.681V267.639C336.437 267.639 345.619 268.248 346.209 267.22C346.803 266.195 347.513 262.481 345.184 260.704C342.855 258.927 337.169 258.84 336.437 260.681Z" fill="#F1A944"/>
<path d="M332.905 259.315L336.505 260.639V267.569L332.768 267.195L332.905 259.315Z" fill="#E8CDA7"/>
<path d="M294.76 267.195C294.76 267.195 348.431 262.44 353.865 250.755C357.871 242.144 349.381 235.265 339.599 238.663C329.816 242.059 294.625 259.315 294.625 259.315L294.76 267.195Z" fill="#58A1D5"/>
<path d="M294.756 259.315L291.156 260.639V267.569L294.893 267.195L294.756 259.315Z" fill="#E8CDA7"/>
<path d="M291.224 260.681V267.639C291.224 267.639 282.044 268.248 281.452 267.22C280.86 266.195 280.148 262.481 282.477 260.704C284.808 258.927 290.492 258.84 291.224 260.681Z" fill="#F1A944"/>
<path d="M89.304 22.3973H75.4987C73.2533 22.3973 71.4333 20.5773 71.4333 18.332V4.52664C71.4333 2.28131 73.2533 0.461307 75.4987 0.461307H89.304C91.548 0.461307 93.368 2.28131 93.368 4.52664V18.332C93.368 20.5773 91.548 22.3973 89.304 22.3973Z" fill="#DAD5EE"/>
<path d="M82.148 10.5626C81.6333 10.5626 81.2146 10.9813 81.2146 11.4973V26.572C81.2146 27.0867 81.6333 27.5053 82.148 27.5053H97.224C97.7387 27.5053 98.1573 27.0867 98.1573 26.572V11.4973C98.1573 10.9813 97.7387 10.5626 97.224 10.5626H82.148ZM97.224 30.952H82.148C79.7333 30.952 77.7693 28.9867 77.7693 26.572V11.4973C77.7693 9.08264 79.7333 7.1173 82.148 7.1173H97.224C99.6387 7.1173 101.603 9.08264 101.603 11.4973V26.572C101.603 28.9867 99.6387 30.952 97.224 30.952Z" fill="#C7C4E7"/>
<path d="M326.56 60.6093H337.043C338.749 60.6093 340.132 59.2266 340.132 57.5213V47.0386C340.132 45.3333 338.749 43.9506 337.043 43.9506H326.56C324.855 43.9506 323.472 45.3333 323.472 47.0386V57.5213C323.472 59.2266 324.855 60.6093 326.56 60.6093Z" fill="#DAD5EE"/>
<path d="M320.544 51.6226C320.153 51.6226 319.836 51.9413 319.836 52.332V63.78C319.836 64.1707 320.153 64.4893 320.544 64.4893H331.993C332.384 64.4893 332.701 64.1707 332.701 63.78V52.332C332.701 51.9413 332.384 51.6226 331.993 51.6226H320.544ZM331.993 67.1067H320.544C318.711 67.1067 317.219 65.6133 317.219 63.78V52.332C317.219 50.4973 318.711 49.0053 320.544 49.0053H331.993C333.827 49.0053 335.319 50.4973 335.319 52.332V63.78C335.319 65.6133 333.827 67.1067 331.993 67.1067Z" fill="#C7C4E7"/>
<path d="M337.667 122.333C337.827 122.493 337.951 122.493 338.112 122.333L342.096 118.348L342.188 118.125L342.096 117.904L338.112 113.919C337.951 113.759 337.827 113.759 337.667 113.919L333.683 117.904L333.589 118.125L333.683 118.348L337.667 122.333ZM337.889 123.783C337.461 123.783 337.032 123.619 336.707 123.293L332.721 119.308C332.071 118.656 332.071 117.596 332.721 116.944L336.707 112.959C337.359 112.305 338.419 112.307 339.072 112.959L343.056 116.944C343.708 117.596 343.708 118.656 343.056 119.308L339.072 123.293C338.747 123.619 338.316 123.783 337.889 123.783Z" fill="#C7C4E7"/>
<path d="M41.7987 105.587L41.5773 105.679L37.5907 109.665L37.4987 109.887L37.5907 110.108L41.576 114.093C41.6973 114.216 41.8973 114.216 42.0213 114.093L46.0053 110.108L46.0973 109.887L46.0053 109.665L42.02 105.68L41.7987 105.587ZM41.7987 115.541C41.3693 115.541 40.9427 115.38 40.616 115.053L36.6306 111.068C36.3146 110.752 36.1413 110.333 36.1413 109.887C36.1413 109.44 36.3147 109.02 36.632 108.704L40.616 104.72C40.9307 104.404 41.3506 104.229 41.7973 104.229H41.7987C42.2453 104.229 42.6653 104.403 42.9813 104.72L46.9653 108.704C47.6173 109.356 47.6173 110.417 46.9653 111.068L42.98 115.053C42.6546 115.38 42.2253 115.541 41.7987 115.541Z" fill="#C7C4E7"/>
<path d="M123.251 63.444C123.251 64.9333 122.044 66.14 120.556 66.14C119.067 66.14 117.86 64.9333 117.86 63.444C117.86 61.956 119.067 60.7493 120.556 60.7493C122.044 60.7493 123.251 61.956 123.251 63.444Z" fill="#DAD5EE"/>
<path d="M60.3333 58.1106C60.3333 59.4373 59.2573 60.5133 57.932 60.5133C56.6053 60.5133 55.5293 59.4373 55.5293 58.1106C55.5293 56.784 56.6053 55.7093 57.932 55.7093C59.2573 55.7093 60.3333 56.784 60.3333 58.1106Z" fill="#DAD5EE"/>
<path d="M118.736 100.333C118.736 101.66 117.66 102.735 116.333 102.735C115.007 102.735 113.931 101.66 113.931 100.333C113.931 99.0066 115.007 97.932 116.333 97.932C117.66 97.932 118.736 99.0066 118.736 100.333Z" fill="#DAD5EE"/>
<path d="M43.612 77.0546C43.612 77.6386 43.1387 78.1107 42.556 78.1107C41.972 78.1107 41.4987 77.6386 41.4987 77.0546C41.4987 76.4706 41.972 75.9986 42.556 75.9986C43.1387 75.9986 43.612 76.4706 43.612 77.0546Z" fill="#DAD5EE"/>
<path d="M80.564 114.044L80.5373 114.031L80.5106 114.004C80.5106 114.004 80.5106 115.551 80.5106 117.031C78.3506 115.244 76.124 112.044 75.964 111.791L80.524 113.991L80.564 114.044Z" fill="#DDBF9C"/>
<path d="M172.431 164.517C172.011 163.548 170.319 159.824 169.903 157.471C169.487 155.117 168.205 153.204 168.172 152.028C168.137 150.853 170.067 150.16 170.572 147.745C171.077 145.329 172.091 141.387 172.719 141.507C173.345 141.627 173.773 145.953 174.371 147.021C174.968 148.087 176.577 149.415 175.329 150.951C174.083 152.488 174.749 154.327 175.893 155.931C177.036 157.536 173.796 159.536 174.113 161.72C174.432 163.904 173.827 166.841 173.827 166.841L172.431 164.517Z" fill="#BDE1BA"/>
<path d="M172.991 159.855L172.803 159.685C172.644 158.247 172.207 157.148 171.856 156.265C171.58 155.571 171.34 154.971 171.317 154.407C171.291 153.716 171.679 153.18 172.053 152.661C172.403 152.18 172.761 151.684 172.848 151.028C173.028 149.657 171.792 146.619 171.779 146.587L171.883 146.34L172.132 146.443C172.184 146.572 173.417 149.608 173.225 151.079C173.127 151.828 172.72 152.389 172.361 152.884C171.993 153.393 171.676 153.832 171.697 154.392C171.717 154.889 171.935 155.435 172.209 156.125C172.569 157.028 173.016 158.152 173.18 159.643L173.012 159.853L172.991 159.855Z" fill="#D8EED5"/>
<path d="M169.209 163.792C168.743 163.581 168.591 161.032 167.735 160.652C166.879 160.272 166.26 159.083 165.975 157.847C165.689 156.609 163.169 156.085 162.693 154.753C162.217 153.421 163.644 152.472 163.549 151.235C163.455 149.997 162.408 148.239 163.169 147.429C163.929 146.621 165.261 149.427 165.975 149.997C166.689 150.569 168.068 151.188 167.688 152.233C167.307 153.28 167.829 154.992 170.304 155.943C172.776 156.895 174.393 166.123 169.209 163.792Z" fill="#D6EED5"/>
<path d="M169.589 159.416L169.409 159.284C168.923 157.797 168.157 157.211 167.272 156.532C166.815 156.183 166.343 155.82 165.881 155.309C164.497 153.777 165.143 151.111 165.172 150.999L165.403 150.86L165.541 151.089C165.535 151.116 164.917 153.675 166.164 155.055C166.601 155.54 167.06 155.891 167.504 156.231C168.401 156.917 169.249 157.567 169.771 159.167L169.648 159.407L169.589 159.416Z" fill="#C8E7C4"/>
<path d="M173.823 164.077C173.949 163.696 174.077 162.047 174.965 161.667C175.853 161.287 176.74 161.032 177.437 159.891C178.136 158.751 177.437 156.973 178.199 155.769C178.96 154.564 180.672 155.705 181.56 154.5C182.448 153.296 180.481 151.203 181.18 150.315C181.877 149.427 182.828 147.017 181.877 146.7C180.925 146.383 178.261 148.095 177.565 149.617C176.867 151.139 175.472 152.028 175.155 153.232C174.837 154.437 173.823 155.072 173.569 156.276C173.315 157.481 173.696 159.32 173.252 160.652C172.808 161.984 173.823 164.077 173.823 164.077Z" fill="#D6EED5"/>
<path d="M176.093 170.925H168.128C167.553 170.925 167.083 170.472 167.06 169.9L166.72 161.413H177.501L177.161 169.9C177.139 170.472 176.668 170.925 176.093 170.925Z" fill="#F14B44"/>
<path d="M175.599 159.637H175.584L175.409 159.433C175.648 156.143 176.791 154.359 177.989 152.92C178.903 151.824 179.468 149.716 179.473 149.695L179.705 149.56L179.841 149.793C179.817 149.883 179.249 152.004 178.281 153.164C177.124 154.553 176.02 156.279 175.788 159.461L175.599 159.637Z" fill="#C9E7C4"/>
<path d="M117.62 157.04L117.368 161.639L117.089 166.731L116.856 171.039H108.528L108.305 166.731L108.04 161.639L107.801 157.04H117.62Z" fill="#F3F3F3"/>
<path d="M117.001 155.695H108.419V157.203H117.001V155.695Z" fill="#292929"/>
<path d="M118.183 158.931H107.239V156.985H118.183V158.931Z" fill="#292929"/>
<path d="M117.368 161.639L117.089 166.731H108.305L108.04 161.639H117.368Z" fill="#F14B44"/>
<path d="M114.056 164.197C114.056 164.941 113.455 165.544 112.709 165.544C111.967 165.544 111.363 164.941 111.363 164.197C111.363 163.455 111.967 162.852 112.709 162.852C113.455 162.852 114.056 163.455 114.056 164.197Z" fill="#D5E2DC"/>
</svg>
