<svg width="389" height="253" viewBox="0 0 389 253" fill="none" xmlns="http://www.w3.org/2000/svg">
<path d="M127 46.54L91.6 228.34L87 252.14L323 251C333.6 250.95 343 241.54 346.39 227.56L388.25 55.93C390.84 45.32 385.16 34.28 377.12 34.29L138.2 34.54C133 34.53 128.34 39.45 127 46.54Z" fill="#4B49AC"/>
<g opacity="0.5">
<path d="M127 46.54L91.6 228.34L87 252.14L323 251C333.6 250.95 343 241.54 346.39 227.56L388.25 55.93C390.84 45.32 385.16 34.28 377.12 34.29L138.2 34.54C133 34.53 128.34 39.45 127 46.54Z" fill="black"/>
</g>
<path d="M300.39 216L275.39 14.59C274.39 6.34 267.8 0.180009 260.03 0.210009L205.23 0.380007C203.194 0.402962 201.183 0.840387 199.321 1.66562C197.459 2.49086 195.785 3.6866 194.4 5.18L168.4 32.85L16 33.67C6.69 33.72 -0.470002 42.54 0.759998 52.44L23.97 238.59C24.97 246.83 31.56 252.98 39.31 252.97L304.96 252.44C334.54 253.05 337.37 244.32 337.37 244.32C303.41 251.83 300.39 216.05 300.39 216Z" fill="#4B49AC"/>
</svg>
