<svg width="440" height="440" viewBox="0 0 440 440" fill="none" xmlns="http://www.w3.org/2000/svg">
<rect x="270" y="312" width="128" height="100" rx="16" transform="rotate(90 270 312)" fill="#CA2B40"/>
<path fill-rule="evenodd" clip-rule="evenodd" d="M178.96 438.372C173.653 435.768 170 430.31 170 424L170 220.448C226.048 225.499 269.974 272.591 270 329.949C270 329.966 270 329.983 270 330C270 330.017 270 330.034 270 330.051C269.975 384.314 230.66 429.39 178.96 438.372Z" fill="#CA2B40"/>
<path fill-rule="evenodd" clip-rule="evenodd" d="M270 219.552C213.935 214.499 170 167.38 170 110C170 55.7142 209.324 10.6129 261.04 1.62793C266.347 4.23232 270 9.68953 270 16V219.552Z" fill="#4B49AC"/>
<rect width="440" height="100" rx="16" fill="#4B49AC"/>
</svg>
