<svg width="672" height="252" viewBox="0 0 672 252" fill="none" xmlns="http://www.w3.org/2000/svg">
<path d="M14.36 151.392V70.752H0.28V66.144H14.36V33.12L61.976 21.344V66.144H95.256V70.752H61.976V157.024C61.976 165.045 62.744 170.933 64.28 174.688C65.9867 178.443 69.4 180.32 74.52 180.32C79.64 180.32 84.0773 177.76 87.832 172.64C91.7573 167.52 94.3173 160.523 95.512 151.648L99.864 152.16C98.4987 163.936 94.744 173.323 88.6 180.32C82.456 187.147 72.3013 190.56 58.136 190.56C43.9707 190.56 33.1333 187.744 25.624 182.112C18.1147 176.48 14.36 166.24 14.36 151.392ZM139.942 48.48C130.897 48.48 124.411 46.176 120.486 41.568C116.731 36.96 114.854 31.2427 114.854 24.416C114.854 17.5893 116.902 11.9573 120.998 7.51999C125.265 3.08266 131.665 0.863998 140.198 0.863998C148.731 0.863998 155.217 2.912 159.654 7.008C164.091 10.9333 166.31 16.6507 166.31 24.16C166.31 31.4987 164.177 37.3867 159.91 41.824C155.643 46.2613 148.987 48.48 139.942 48.48ZM101.286 66.144H164.006V183.392H178.342V188H102.31V183.392H116.39V70.752H101.286V66.144ZM183.56 66.144H245.256V89.696C250.888 72.288 263.261 63.584 282.376 63.584C301.661 63.584 313.352 72.8 317.448 91.232C323.421 72.8 335.965 63.584 355.08 63.584C380.168 63.584 392.712 77.8347 392.712 106.336V183.392H407.048V188H336.136V183.392H345.096V100.192C345.096 87.2213 343.987 79.6267 341.768 77.408C340.744 76.384 339.379 75.872 337.672 75.872C332.723 75.872 328.371 79.2 324.616 85.856C320.861 92.512 318.984 100.96 318.984 111.2V183.392H328.2V188H262.408V183.392H271.368V100.192C271.368 87.2213 270.259 79.6267 268.04 77.408C267.016 76.384 265.651 75.872 263.944 75.872C259.165 75.872 254.813 79.5413 250.888 86.88C247.133 94.048 245.256 102.667 245.256 112.736V183.392H254.472V188H183.56V183.392H197.64V70.752H183.56V66.144ZM478.138 190.56C456.122 190.56 439.567 184.928 428.474 173.664C417.551 162.229 412.09 146.443 412.09 126.304C412.09 105.995 418.234 90.464 430.522 79.712C442.981 68.96 458.767 63.584 477.882 63.584C516.623 63.584 535.226 83.04 533.69 121.952H461.498V131.936C461.498 148.661 463.631 161.291 467.898 169.824C472.165 178.357 479.589 182.624 490.17 182.624C509.967 182.624 522.938 172.043 529.082 150.88L533.69 151.648C530.447 163.936 524.559 173.493 516.026 180.32C507.663 187.147 495.034 190.56 478.138 190.56ZM461.754 116.832H488.122V104.288C488.122 90.464 487.269 81.0773 485.562 76.128C484.026 71.008 480.783 68.448 475.834 68.448C471.055 68.448 467.471 71.1787 465.082 76.64C462.863 81.9307 461.754 91.1467 461.754 104.288V116.832ZM535.03 70.752V66.144H609.27V70.752H595.446L623.35 155.744L653.046 70.752H635.894V66.144H671.99V70.752H659.19L611.318 208.736C605.686 224.779 599.371 235.957 592.374 242.272C585.377 248.757 576.843 252 566.774 252C556.705 252 548.769 249.696 542.966 245.088C537.163 240.48 534.262 234.592 534.262 227.424C534.262 220.256 536.139 214.795 539.894 211.04C543.649 207.285 548.598 205.408 554.742 205.408C568.907 205.408 575.99 211.296 575.99 223.072C575.99 225.632 575.478 228.704 574.454 232.288H565.494C564.129 236.213 563.958 239.456 564.982 242.016C566.006 244.576 568.31 245.856 571.894 245.856C578.891 245.856 585.121 242.357 590.582 235.36C596.043 228.533 601.249 218.037 606.198 203.872L611.83 188H589.302L545.526 70.752H535.03Z" fill="url(#paint0_linear_10_3)"/>
<defs>
<linearGradient id="paint0_linear_10_3" x1="-1" y1="134.5" x2="670" y2="134.5" gradientUnits="userSpaceOnUse">
<stop stop-color="#CA2B40"/>
<stop offset="1" stop-color="#4B49AC"/>
</linearGradient>
</defs>
</svg>
