<svg width="300" height="400" viewBox="0 0 300 400" fill="none" xmlns="http://www.w3.org/2000/svg">
<g filter="url(#filter0_d_4_24)">
<path d="M0 236V236C-2.41411e-06 180.772 44.7715 136 100 136L300 136V136C300 191.228 255.228 236 200 236L0 236Z" fill="#CA2B40"/>
<path d="M100 100C100 44.7715 144.772 0 200 0V400C144.772 400 100 355.228 100 300V100Z" fill="#4B49AC"/>
<path d="M200 400C144.772 400 100 355.228 100 300H300C300 355.228 255.228 400 200 400Z" fill="#4B49AC"/>
<path d="M200 300V275C200 288.807 211.193 300 225 300H200Z" fill="#4B49AC"/>
</g>
<defs>
<filter id="filter0_d_4_24" x="-4" y="0" width="308" height="408" filterUnits="userSpaceOnUse" color-interpolation-filters="sRGB">
<feFlood flood-opacity="0" result="BackgroundImageFix"/>
<feColorMatrix in="SourceAlpha" type="matrix" values="0 0 0 0 0 0 0 0 0 0 0 0 0 0 0 0 0 0 127 0" result="hardAlpha"/>
<feOffset dy="4"/>
<feGaussianBlur stdDeviation="2"/>
<feComposite in2="hardAlpha" operator="out"/>
<feColorMatrix type="matrix" values="0 0 0 0 0 0 0 0 0 0 0 0 0 0 0 0 0 0 0.25 0"/>
<feBlend mode="normal" in2="BackgroundImageFix" result="effect1_dropShadow_4_24"/>
<feBlend mode="normal" in="SourceGraphic" in2="effect1_dropShadow_4_24" result="shape"/>
</filter>
</defs>
</svg>
