<svg width="400" height="400" viewBox="0 0 400 400" fill="none" xmlns="http://www.w3.org/2000/svg">
<rect width="400" height="400" rx="100" fill="url(#paint0_linear_11_6)"/>
<path d="M145 270.8V144.8H123V137.6H145V86L219.4 67.6V137.6H271.4V144.8H219.4V279.6C219.4 292.133 220.6 301.333 223 307.2C225.667 313.067 231 316 239 316C247 316 253.933 312 259.8 304C265.933 296 269.933 285.067 271.8 271.2L278.6 272C276.467 290.4 270.6 305.067 261 316C251.4 326.667 235.533 332 213.4 332C191.267 332 174.333 327.6 162.6 318.8C150.867 310 145 294 145 270.8Z" fill="white"/>
<defs>
<linearGradient id="paint0_linear_11_6" x1="400" y1="400" x2="0" y2="0" gradientUnits="userSpaceOnUse">
<stop stop-color="#CA2B40"/>
<stop offset="1" stop-color="#4B49AC"/>
</linearGradient>
</defs>
</svg>
