<svg width="400" height="400" viewBox="0 0 400 400" fill="none" xmlns="http://www.w3.org/2000/svg">
<path d="M125 16C125 7.16345 132.163 0 141 0H259C267.837 0 275 7.16344 275 16V384C275 392.837 267.837 400 259 400H141C132.163 400 125 392.837 125 384V16Z" fill="url(#paint0_linear_5_62)"/>
<path d="M384 1.83741e-05C392.837 1.87604e-05 400 7.16346 400 16V134C400 142.837 392.837 150 384 150L16 150C7.16345 150 -3.86258e-07 142.837 0 134L5.15794e-06 16C5.5442e-06 7.16345 7.16345 1.90206e-06 16 2.28831e-06L384 1.83741e-05Z" fill="url(#paint1_linear_5_62)"/>
<defs>
<linearGradient id="paint0_linear_5_62" x1="200" y1="0" x2="200" y2="400" gradientUnits="userSpaceOnUse">
<stop stop-color="#6663D0"/>
<stop offset="1" stop-color="#35337E"/>
</linearGradient>
<linearGradient id="paint1_linear_5_62" x1="200" y1="0" x2="200" y2="400" gradientUnits="userSpaceOnUse">
<stop stop-color="#6663D0"/>
<stop offset="1" stop-color="#35337E"/>
</linearGradient>
</defs>
</svg>
