<?xml version="1.0" standalone="no"?>
<!DOCTYPE svg PUBLIC "-//W3C//DTD SVG 20010904//EN"
 "http://www.w3.org/TR/2001/REC-SVG-20010904/DTD/svg10.dtd">
<svg version="1.0" xmlns="http://www.w3.org/2000/svg"
 width="800.000000pt" height="800.000000pt" viewBox="0 0 800.000000 800.000000"
 preserveAspectRatio="xMidYMid meet">
<metadata>
Created by potrace 1.14, written by Peter Selinger 2001-2017
</metadata>
<g transform="translate(0.000000,800.000000) scale(0.100000,-0.100000)"
fill="#000000" stroke="none">
<path d="M4705 7984 c-753 -116 -1372 -638 -1610 -1356 -24 -73 -52 -178 -63
-233 -59 -298 -57 -274 -57 -700 l0 -400 -25 -6 c-14 -4 -49 -7 -79 -8 -29 0
-101 -8 -159 -17 -862 -128 -1537 -785 -1692 -1648 -27 -147 -29 -406 -3 -427
13 -12 182 -15 975 -19 838 -4 960 -7 968 -20 6 -9 10 -267 10 -650 0 -362 5
-684 11 -750 50 -550 303 -1036 724 -1388 159 -133 361 -253 560 -332 l76 -30
657 0 657 0 80 31 c598 230 1056 744 1227 1377 31 113 32 124 36 360 l4 242
-789 0 c-844 0 -834 0 -939 51 -79 39 -169 131 -210 213 l-35 72 1 392 c0 216
3 399 6 407 8 19 59 31 164 39 351 27 764 193 1055 424 363 289 618 693 721
1142 21 94 24 129 24 323 l0 217 -987 0 -988 0 -1 1283 c-1 705 -5 1315 -9
1355 l-7 72 -107 -1 c-58 -1 -146 -7 -196 -15z"/>
</g>
</svg>
