<?xml version="1.0" standalone="no"?>
<!DOCTYPE svg PUBLIC "-//W3C//DTD SVG 20010904//EN"
 "http://www.w3.org/TR/2001/REC-SVG-20010904/DTD/svg10.dtd">
<svg version="1.0" xmlns="http://www.w3.org/2000/svg"
 width="700.000000pt" height="700.000000pt" viewBox="0 0 700.000000 700.000000"
 preserveAspectRatio="xMidYMid meet">
<metadata>
Created by potrace 1.14, written by Peter Selinger 2001-2017
</metadata>
<g transform="translate(0.000000,700.000000) scale(0.100000,-0.100000)"
fill="#000000" stroke="none">
<path d="M0 3500 l0 -3500 3500 0 3500 0 0 3500 0 3500 -3500 0 -3500 0 0
-3500z m3840 1700 l0 -610 455 0 455 0 0 -60 0 -60 -455 0 -455 0 0 -1282 c0
-1071 3 -1299 15 -1378 28 -186 63 -253 156 -305 51 -28 60 -30 164 -30 99 0
116 3 169 28 121 56 220 168 302 340 41 88 89 252 109 371 6 36 8 38 37 32 17
-3 42 -6 55 -6 24 0 25 -2 18 -47 -48 -335 -196 -648 -374 -790 -199 -158
-522 -230 -908 -203 -383 27 -629 115 -798 285 -85 85 -128 156 -171 283 -70
206 -67 135 -71 1485 l-4 1217 -189 0 -190 0 0 60 0 60 190 0 190 0 2 451 3
451 635 158 c349 87 641 159 648 159 9 1 12 -127 12 -609z"/>
</g>
</svg>
